<svg width="287" height="34" viewBox="0 0 287 34" fill="none" xmlns="http://www.w3.org/2000/svg">
<path d="M23.291 7.2998V33.5449H14.2334V7.2998H0V0H37.5488V7.2998H23.291ZM66.5547 27.1973H47.8535L44.7041 33.5449H34.5967L52.1504 0H62.2578L79.8115 33.5449H69.7041L66.5547 27.1973ZM51.1006 20.6543H63.3564L57.2529 8.30078L51.1006 20.6543ZM83.3047 33.5449V0H92.3623V26.1963H116.85V33.5449H83.3047ZM131.231 12.793L149.786 0H161.92L139.337 16.0889L163.434 33.5449H150.226L131.231 19.6045V33.5449H122.125V0H131.231V12.793ZM204.402 11.4502C204.402 13.1266 204.158 14.6729 203.67 16.0889C203.182 17.4886 202.392 18.7012 201.302 19.7266C200.228 20.7357 198.828 21.5251 197.103 22.0947C195.377 22.6644 193.278 22.9492 190.804 22.9492H175.765V33.5449H166.707V0H190.804C193.278 0 195.377 0.284831 197.103 0.854492C198.828 1.40788 200.228 2.19727 201.302 3.22266C202.392 4.23177 203.182 5.4362 203.67 6.83594C204.158 8.23568 204.402 9.77376 204.402 11.4502ZM195.247 11.5967C195.247 10.8154 195.133 10.1481 194.905 9.59473C194.694 9.02507 194.336 8.5612 193.831 8.20312C193.326 7.84505 192.667 7.58464 191.854 7.42188C191.04 7.24284 190.039 7.15332 188.851 7.15332H175.765V15.7959H188.851C190.039 15.7959 191.04 15.7308 191.854 15.6006C192.667 15.4541 193.326 15.2181 193.831 14.8926C194.336 14.5508 194.694 14.1113 194.905 13.5742C195.133 13.0371 195.247 12.3779 195.247 11.5967ZM235.166 27.1973H216.465L213.315 33.5449H203.208L220.762 0H230.869L248.423 33.5449H238.315L235.166 27.1973ZM219.712 20.6543H231.968L225.864 8.30078L219.712 20.6543ZM270.275 19.8486V33.5449H261.242V19.8486L244.982 0H255.139L265.783 13.501L276.379 0H286.535L270.275 19.8486Z" fill="#FFF1F5"/>
</svg>
